<svg height="512" viewBox="0 0 512 512" width="512" xmlns="http://www.w3.org/2000/svg"><circle cx="112" cy="152" fill="#5d7991" r="96"/><circle cx="112" cy="152" fill="#f05a4b" r="64"/><circle cx="400" cy="152" fill="#5d7991" r="96"/><circle cx="400" cy="152" fill="#f05a4b" r="64"/><path d="m400 246.294v-62.294a32 32 0 0 0 -32-32h-224a32 32 0 0 0 -32 32v62.294a120 120 0 0 0 35.147 84.853l60.853 60.853h96l60.853-60.853a120 120 0 0 0 35.147-84.853z" fill="#5d7991"/><g fill="#32283c"><path d="m397.333 348h-77.333a4 4 0 0 1 0-8h77.333a4 4 0 1 1 0 8z"/><path d="m384 404a3.989 3.989 0 0 1 -1.786-.423l-64-32a4 4 0 0 1 3.578-7.156l64 32a4 4 0 0 1 -1.792 7.579z"/><path d="m192 348h-77.333a4 4 0 0 1 0-8h77.333a4 4 0 0 1 0 8z"/><path d="m128 404a4 4 0 0 1 -1.792-7.579l64-32a4 4 0 1 1 3.578 7.156l-64 32a3.986 3.986 0 0 1 -1.786.423z"/></g><path d="m112 184a32 32 0 0 0 32 32h32a32 32 0 0 1 32 32v160a48 48 0 0 0 48 48 48 48 0 0 0 48-48v-160a32 32 0 0 1 32-32h32a32 32 0 0 0 32-32 32 32 0 0 0 -32-32h-224a32 32 0 0 0 -32 32z" fill="#96aab9"/><circle cx="256" cy="408" fill="#f05a4b" r="24"/><circle cx="160" cy="248" fill="#32283c" r="16"/><circle cx="352" cy="248" fill="#32283c" r="16"/></svg>